<?xml version="1.0" encoding="utf-8"?>
<!-- Generator: Adobe Illustrator 26.0.1, SVG Export Plug-In . SVG Version: 6.00 Build 0)  -->
<svg version="1.1" id="Layer_1" xmlns="http://www.w3.org/2000/svg" xmlns:xlink="http://www.w3.org/1999/xlink" x="0px" y="0px"
	 viewBox="0 0 263 261" style="enable-background:new 0 0 263 261;" xml:space="preserve">
<style type="text/css">
	.st0{fill-rule:evenodd;clip-rule:evenodd;}
</style>
<g>
	<path class="st0" d="M202,130.7c-5.6-3.1-15.6,2.9-15.6,2.5c0,1.3-1.6,11.1,2,18.8c0.7,1.5,2.8,3,5,3.7c2.2,0.8,4.6,0.6,5.4,0.4
		c1.1-0.3,7-2,8.1-9.2C208.7,135.4,205,132.3,202,130.7z"/>
	<path class="st0" d="M123.2,131.7c-5.6-3.1-15.6,2.9-15.6,2.5c0,1.3-1.6,11.1,2,18.8c0.7,1.5,2.8,3,5,3.7c2.2,0.8,4.6,0.6,5.4,0.4
		c1.1-0.3,7-2,8.1-9.2C129.8,136.3,126.1,133.3,123.2,131.7z"/>
	<path class="st0" d="M131.5,14.5c-64.1,0-116,51.9-116,116s52,116,116,116s116-51.9,116-116S195.6,14.5,131.5,14.5z M59.2,165.6
		c-7.9,0.9-14.8,1.2-19-0.2c-0.4-0.1-0.6,0-1.1-0.6c-0.5-0.6-0.6-1.3-0.6-1.3l-2.1-7.7c2.9,1.3,9.1,1.7,15.4,1
		c3.9-0.5,8-1.8,12.7-4.3c4.1-2.1,6.4-6.7,6.6-9.5c0.4-8.4-4.8-11-11.3-11.3H48.5l-0.4-11l7.3-0.6c5.2-0.6,14.6-2.7,12.7-9.6
		c-1-3.9-5-8.6-11.3-7.7c-5.2,0.8-9.9,4.6-14.4,8.1l-6-7.7c3.7-3,12.8-9.3,21.5-10.4c16.8-2,24.1,5.3,25.6,14.1
		c1.2,6.8-4,14.6-14.2,17.5l1.3-0.4c8.1,0.5,15.9,5.5,16.8,14.3C88.7,150,75.9,163.7,59.2,165.6z M120.7,165.4
		c-17.6,1.5-27.2-11-28.5-26.8c-1-12.4,2.7-23.2,9.3-30.5c5.9-6.5,19.2-14.6,29-17.2c2.5-0.7,2.9,0.2,3.1,1.1l2.4,6.5
		c-1.8,0-8.8,2.7-10.3,3.6c-12,6.6-17.6,16.1-18.7,23.8h0.3c3-3.5,7.5-5.8,13.5-6.3c11-0.9,20.9,6.2,22.1,19.9
		C144,152.7,134.8,164.3,120.7,165.4z M162.3,128.7l-1.5,1.8c-1.8,2.3-2.7,3-4.2,5.1c-2.4-2.8-3.2-3.5-5.4-6.2
		c-1.6-1.9-3.4-4.5-3.4-7.1c0-2.4,1.8-4.2,4.3-4.2c2.2,0,4.1,1.9,4.6,4.1c0.6-2.2,2.2-4.1,4.7-4.1c2.2,0,4.1,1.8,4.1,4.2
		C165.4,124.9,163.7,126.8,162.3,128.7z M199.5,164.5c-17.6,1.5-27.2-11-28.5-26.8c-1-12.4,2.7-23.2,9.3-30.5
		c5.9-6.5,19.2-14.6,29-17.2c2.5-0.7,2.9,0.2,3.1,1.1l2.4,6.5c-1.8,0-8.8,2.7-10.3,3.6c-12,6.6-17.6,16.1-18.7,23.8h0.3
		c3-3.5,7.5-5.8,13.5-6.3c11-0.9,20.9,6.2,22.1,19.9C222.8,151.7,213.6,163.3,199.5,164.5z"/>
</g>
</svg>
