<?xml version="1.0" encoding="utf-8"?>
<!-- Generator: Adobe Illustrator 26.0.1, SVG Export Plug-In . SVG Version: 6.00 Build 0)  -->
<svg version="1.1" id="Слой_1" xmlns="http://www.w3.org/2000/svg" xmlns:xlink="http://www.w3.org/1999/xlink" x="0px" y="0px"
	 viewBox="0 0 290 34.4" style="enable-background:new 0 0 290 34.4;" xml:space="preserve">
<g>
	<path d="M60.7,23.7c-1.6-0.9-3.7-1.3-6.4-1.3h-3.7v-3h10.7v-3.2H45v16.4h9.2c2.7,0,4.9-0.4,6.4-1.3c1.4-0.8,2.1-2,2.1-3.8
		C62.8,25.7,62.1,24.5,60.7,23.7z M56.4,29.2c-0.5,0.3-1.4,0.5-2.5,0.5l-3.3,0v-4.1h3.3c1.2,0,2,0.1,2.5,0.5
		c0.6,0.3,0.8,0.9,0.8,1.5C57.2,28.4,56.9,28.9,56.4,29.2z"/>
	<path d="M70.8,15.9l-7.2,16.4h5l1.2-3h7.8l1.2,3h5l-7.2-16.4H70.8z M71.1,26.3l2.6-6.5l2.7,6.5H71.1z"/>
	<polygon points="106,29.4 100.2,29.4 100.2,16.2 95.7,16.2 95.7,29.4 89.8,29.4 89.8,16.2 85.3,16.2 85.3,32.6 110.5,32.6 
		110.5,16.2 106,16.2 	"/>
	<polygon points="127.2,22.5 119.6,22.5 119.6,16.2 114.4,16.2 114.4,32.6 119.6,32.6 119.6,25.6 127.2,25.6 127.2,32.6 132.4,32.6 
		132.4,16.2 127.2,16.2 	"/>
	<polygon points="140.2,25.6 148.6,25.6 148.6,22.4 140.2,22.4 140.2,19.4 149.1,19.4 149.1,16.2 135,16.2 135,32.6 149.5,32.6 
		149.5,29.4 140.2,29.4 	"/>
	<path d="M172.9,18.9c-1.6-1.2-3.9-1.9-7.2-2.2v-1.9h-5.1v1.9c-3.3,0.3-5.7,1-7.2,2.2c-1.6,1.2-2.4,3-2.4,5.5c0,2.5,0.8,4.3,2.4,5.5
		c1.6,1.2,4,1.9,7.2,2.2v2.4h5.1V32c3.3-0.2,5.6-1,7.2-2.2c1.6-1.2,2.4-3,2.4-5.5C175.2,21.9,174.5,20.1,172.9,18.9z M160.6,28.3
		c-1.5-0.1-2.6-0.5-3.3-1.1c-0.7-0.6-1-1.6-1-2.9c0-1.3,0.3-2.3,1-2.9c0.7-0.6,1.8-0.9,3.3-1.1V28.3z M168.9,27.2
		c-0.7,0.6-1.8,0.9-3.3,1.1v-7.9c1.5,0.1,2.6,0.5,3.3,1.1c0.7,0.6,1,1.6,1,2.9C170,25.7,169.6,26.6,168.9,27.2z"/>
	<polygon points="174.6,19.4 180.7,19.4 180.7,32.6 185.3,32.6 185.3,19.4 191.3,19.4 191.3,16.2 174.6,16.2 	"/>
	<path d="M208.7,23.7c-1.5-0.9-3.5-1.3-6.1-1.3h-3.5v-6.3h-5.3v16.4h8.8c2.6,0,4.6-0.4,6.1-1.3c1.4-0.8,2-2,2-3.8
		C210.8,25.8,210.1,24.5,208.7,23.7z M204.6,29.2c-0.5,0.3-1.3,0.5-2.4,0.5l-3.1,0v-4.1h3.1c1.1,0,1.9,0.1,2.4,0.5
		c0.5,0.3,0.8,0.9,0.8,1.5C205.4,28.4,205.2,28.9,204.6,29.2z"/>
</g>
<g>
	<path d="M17.8,19.9L32.1,8C29,3.2,23.6,0,17.4,0c-3.5,0-6.8,1-9.5,2.8l9.9,8.1V19.9z"/>
	<path d="M34.7,15.3L17.8,29.5v-9.3L3,7.7l0,0c-1.9,2.7-2.9,6-2.9,9.6c0,9.5,7.8,17.2,17.4,17.2s17.4-7.7,17.4-17.2
		C34.8,16.5,34.8,15.9,34.7,15.3z"/>
</g>
</svg>
