<?xml version="1.0" encoding="utf-8"?>
<!-- Generator: Adobe Illustrator 26.0.1, SVG Export Plug-In . SVG Version: 6.00 Build 0)  -->
<svg version="1.1" id="Layer_1" xmlns:svg="http://www.w3.org/2000/svg"
	 xmlns="http://www.w3.org/2000/svg" xmlns:xlink="http://www.w3.org/1999/xlink" x="0px" y="0px" viewBox="0 0 512 512"
	 style="enable-background:new 0 0 512 512;" xml:space="preserve">
<style type="text/css">
	.st0{fill-rule:evenodd;clip-rule:evenodd;}
</style>
<g>
	<path class="st0" d="M286.5,83.1c-11.2-26.6-25-46.8-30.5-55.1c-5.5,8.2-19.3,28.5-30.5,55.1c11,11.8,21.8,25.8,30.5,41.6
		C264.6,108.9,275.6,94.9,286.5,83.1z"/>
	<path class="st0" d="M225.5,428.9c11.2,26.5,25,46.8,30.5,55.1c5.5-8.2,19.3-28.5,30.5-55.1c-11-11.8-21.8-25.8-30.5-41.6
		C247.4,403.1,236.6,417.1,225.5,428.9z"/>
	<path class="st0" d="M225.5,83.1C206,62,186,47.7,178.2,41.9c-2.4,9.6-8.4,33.4-9.8,62.1c14.4,7.3,29.4,16.8,42.8,28.6
		C213.8,114.8,219.3,98,225.5,83.1z"/>
	<path class="st0" d="M301,379.4c2.3-14.7,2.7-30,0.1-45.4c12.1,9.9,25.4,17.2,39.2,22.5c-2.9-14.5-7.8-29.1-15.4-42.7
		c-13.8-4.9-27.3-12.2-39.6-23c8.4,14.1,13.3,28.5,15.7,43c-11.4-9.3-21.4-20.8-29.4-35.1c3.1,16.1,2.8,31.5,0.1,45.9
		C279.7,358,289.8,369.6,301,379.4c-2.8,17.8-8.2,34.6-14.5,49.5c19.6,21.1,39.5,35.4,47.5,41.2c2.3-9.6,8.4-33.4,9.8-62.1
		C329.4,400.7,314.4,391.3,301,379.4z"/>
	<path class="st0" d="M171.5,155.3c-3.5-17.6-4.1-35.2-3.3-51.3c-25.7-13.2-49.2-19.8-58.7-22.6c1.1,9.8,3.5,34.2,12,61.7
		C137.5,145.1,154.8,148.8,171.5,155.3z"/>
	<path class="st0" d="M142.3,190.4c-9.3-15.4-16-31.8-20.7-47.2c-28.6-3.6-53.1-1.7-62.9-1.1C63,150.9,73.7,173,91,196
		C106.8,192.4,124.3,189.9,142.3,190.4z"/>
	<path class="st0" d="M369.6,321.7c9.4,15.4,16,31.7,20.7,47.1c-15.9-2-33.1-5.7-49.8-12.2c3.5,17.7,4.1,35.4,3.3,51.5
		c25.7,13.2,49.2,19.8,58.7,22.5c-1.1-9.8-3.4-34.1-11.9-61.6c28.5,3.6,52.9,1.7,62.7,1.2c-4.4-8.9-15-31-32.3-54
		C405.2,319.7,387.7,322.1,369.6,321.7z"/>
	<path class="st0" d="M126.6,233.4c-13.8-11.4-25.8-24.6-35.5-37.4c-28.1,6.4-50.4,16.5-59.4,20.5c7.2,6.8,24.6,23.9,48.8,39.6
		C94,247.4,109.6,239.1,126.6,233.4z"/>
	<path class="st0" d="M91.4,316c9.6-13,21.5-26.1,35.4-37.2c-17-5.7-32.7-14.1-46.1-22.7c-24.2,15.7-41.8,32.8-48.8,39.6
		c9,4,31.2,14,59.2,20.4C73.7,339.1,63,361.1,58.8,370c9.8,0.7,34.3,2.4,62.9-1.2c4.8-15.4,11.4-31.8,20.7-47.2
		C124.4,322.1,107,319.7,91.4,316z"/>
	<path class="st0" d="M420.7,196c-9.6,12.9-21.5,26-35.4,37.3c17,5.7,32.7,14.1,46.1,22.7c24.2-15.7,41.8-32.8,48.8-39.6
		c-9-4-31.3-14-59.3-20.4c17.4-23,28-45,32.3-53.9c-9.8-0.7-34.3-2.4-62.9,1.2c-4.7,15.4-11.4,31.8-20.7,47.2
		C387.6,189.9,405.1,192.4,420.7,196z"/>
	<path class="st0" d="M168.4,407.9c-0.9-16.1-0.3-33.7,3.3-51.4c-16.8,6.5-34,10.2-50,12.2c-8.5,27.5-10.9,52-12,61.7
		c9.4-2.8,32.9-9.4,58.5-22.4c1.5,28.7,7.4,52.5,9.8,62c8-5.9,27.8-20.1,47.3-41.2c-6.3-14.9-11.7-31.7-14.4-49.5
		C197.7,391.2,182.7,400.6,168.4,407.9z"/>
	<path class="st0" d="M300.8,132.6c13.5-11.8,28.5-21.2,42.8-28.5c0.9,16.1,0.3,33.7-3.3,51.4c16.8-6.5,34-10.2,50-12.2
		c8.5-27.5,10.9-52,12-61.7c-9.4,2.8-32.9,9.4-58.5,22.4c-1.5-28.7-7.4-52.5-9.8-62c-8,5.9-27.8,20.1-47.5,41.2
		C292.7,98,298.2,114.8,300.8,132.6z"/>
	<path class="st0" d="M211,178.1c11.3,9.3,21.4,20.9,29.4,35.2c-3.1-16.2-2.8-31.5,0-45.9c-8-13.4-18.1-25-29.3-34.8
		C208.9,147.3,208.5,162.6,211,178.1z"/>
	<path class="st0" d="M187,198.1c-14.7-5.2-29.9-7.4-44.7-7.8c7.7,12.6,17.3,24.7,29.1,34.8c14.6-0.1,29.8,2.3,45.2,8.1
		c-12.7-10.3-22.3-22.2-29.4-34.9c13.8,4.8,27.1,12.2,39.5,23c-8.4-14.2-13.3-28.7-15.7-43.2c-12.1-10-25.5-17.3-39.4-22.6
		C174.6,170,179.5,184.5,187,198.1z"/>
	<path class="st0" d="M295.4,278.7c12.8,10.4,22.3,22.3,29.5,35.1c14.8,5.2,29.9,7.4,44.8,7.8c-7.7-12.6-17.3-24.7-29.1-34.8
		C325.8,287,310.8,284.6,295.4,278.7z"/>
	<path class="st0" d="M171.5,225.3c-15.7,0.1-30.7,3.2-44.8,8c11.6,9.3,24.7,17.3,39.4,22.7c13.7-5.2,28.7-8.1,45.2-7.8
		C195.8,242.7,182.7,234.9,171.5,225.3z"/>
	<path class="st0" d="M346,256c-13.8,5.2-28.9,8.1-45.2,7.8c15.6,5.5,28.6,13.4,39.8,22.9c15.7-0.1,30.7-3.2,44.7-7.9
		c14.1,11.3,25.9,24.3,35.6,37.2c28.1-6.4,50.4-16.5,59.4-20.5c-7.2-6.6-24.7-23.8-48.9-39.5c-13.5,8.8-29.1,17-46.1,22.7
		C373.8,269.4,360.8,261.4,346,256z"/>
	<path class="st0" d="M166.1,256c-14.6,5.5-27.7,13.6-39.4,22.7c14.1,4.8,29.1,7.8,44.8,8c11-9.6,24.2-17.4,39.8-22.9
		C194.8,264.1,179.8,261.2,166.1,256z"/>
	<path class="st0" d="M300.7,248.2c16.5-0.3,31.5,2.7,45.2,7.8c14.6-5.5,27.8-13.6,39.4-22.7c-14.1-4.8-29.1-7.8-44.8-8
		C329.4,234.9,316.2,242.7,300.7,248.2z"/>
	<path class="st0" d="M216.6,278.7c-15.4,5.9-30.6,8.2-45.1,8c-11.8,10.2-21.5,22.2-29.1,34.8c14.8-0.4,30.1-2.7,44.8-7.8
		C194.3,301.1,203.9,289.1,216.6,278.7z"/>
	<path class="st0" d="M369.6,190.4c-14.8,0.3-30.1,2.7-44.8,7.8c-7,12.6-16.8,24.6-29.4,35c15.4-5.9,30.6-8.2,45.1-8
		C352.3,215,361.9,203.1,369.6,190.4z"/>
	<path class="st0" d="M256,301.5c-2.7,16.2-8.1,30.5-15.6,43.1c2.9,15.4,8.5,29.7,15.6,42.7c7.2-13,12.8-27.3,15.6-42.7
		C264.1,331.9,258.7,317.7,256,301.5z"/>
	<path class="st0" d="M240.4,298.7c-8,14.4-18.1,25.9-29.4,35.2c-2.5,15.4-2.1,30.7,0.1,45.5c11.2-9.8,21.3-21.3,29.3-34.8
		C237.8,330.2,237.4,314.9,240.4,298.7z"/>
	<path class="st0" d="M171.5,356.5c13.8-5.3,27.3-12.8,39.4-22.6c2.4-14.5,7.3-29,15.7-43.1c-12.2,10.8-25.7,18.1-39.5,23
		C179.4,327.6,174.6,342,171.5,356.5z"/>
	<path class="st0" d="M271.7,167.3c-2.9-15.4-8.5-29.5-15.5-42.5c-7.2,13-12.8,27.3-15.6,42.7c7.4,12.5,12.9,26.9,15.6,43.1
		c2.5-16.2,7.9-30.3,15.5-42.9c2.8,14.3,3,29.5,0,45.7c8-14.4,18.1-25.9,29.4-35.2c-2.4,14.4-7.3,28.9-15.8,42.9
		c12.5-10.5,25.9-18,39.8-22.9c7.7-13.7,12.5-28.2,15.4-42.8c-13.8,5.4-27.2,12.8-39.3,22.6c2.5-15.4,2.1-30.8-0.2-45.3
		C289.7,142.4,279.6,153.8,271.7,167.3z"/>
</g>
</svg>
