<?xml version="1.0" encoding="utf-8"?>
<!-- Generator: Adobe Illustrator 26.0.1, SVG Export Plug-In . SVG Version: 6.00 Build 0)  -->
<svg version="1.1" id="Слой_1" xmlns="http://www.w3.org/2000/svg" xmlns:xlink="http://www.w3.org/1999/xlink" x="0px" y="0px"
	 viewBox="0 0 290 34.4" style="enable-background:new 0 0 290 34.4;" xml:space="preserve">
<g>
	<polygon points="22.1,34.4 24.5,34.4 24.5,24 26.6,24 26.6,22.5 22.1,22.5 	"/>
	<path d="M27.9,22.5l-1.2,11.9H29l0.2-3.2h1.1l0.2,3.2h2.3l-1.2-11.9H27.9z M29.3,29.9l0.4-6h0.1l0.4,6H29.3z"/>
	<path d="M37.7,22.5h-2c-1.7,0-1.8,1.3-1.8,2.1v1.7h2.4v-1.9c0-0.3,0.2-0.4,0.4-0.4c0.2,0,0.4,0.2,0.4,0.4v2.4
		c0,0.7-0.2,0.9-0.9,0.9h-1v1.3h1c0.9,0,1,0.4,1,0.8v2.8c0,0.2-0.2,0.4-0.4,0.4c-0.1,0-0.4-0.1-0.4-0.4v-2.2H34v2
		c0,0.8,0.1,2.1,1.8,2.1h2c1.7,0,1.8-1.3,1.8-2.1v-2.4c0-0.4,0-1.6-1.6-1.6v-0.1c0.7,0,1.6-0.3,1.6-1.6v-1.9
		C39.5,23.8,39.4,22.5,37.7,22.5z"/>
	<polygon points="41,34.4 43.4,34.4 43.4,24 44.2,24 44.2,34.4 46.5,34.4 46.5,22.5 41,22.5 	"/>
	<path d="M51.9,22.5h-3.7v11.9h2.4v-4.1h1.4c1.7,0,1.8-1.3,1.8-2.1v-3.6C53.6,23.8,53.5,22.5,51.9,22.5z M51.2,28.4
		c0,0.4-0.2,0.6-0.4,0.6h-0.3V24h0.3c0.3,0,0.4,0.2,0.4,0.6V28.4z"/>
	<path d="M58.9,22.5h-2c-1.7,0-1.8,1.3-1.8,2.1v7.7c0,0.8,0.1,2.1,1.8,2.1h2c1.7,0,1.8-1.3,1.8-2.1v-7.7
		C60.7,23.8,60.6,22.5,58.9,22.5z M58.3,32.5c0,0.2-0.2,0.4-0.4,0.4c-0.1,0-0.4-0.1-0.4-0.4v-8.1c0-0.3,0.2-0.4,0.4-0.4
		c0.2,0,0.4,0.2,0.4,0.4V32.5z"/>
	<polygon points="68.4,22.5 66.9,30.9 65.4,22.5 62.3,22.5 62.3,34.4 64.6,34.4 64.6,26.9 64.7,26.9 65.9,34.4 67.9,34.4 69.1,26.9 
		69.2,26.9 69.2,34.4 71.6,34.4 71.6,22.5 	"/>
	<path d="M14.3,18.3c0.6,1.3,1.4,2.8,1.9,3.5c0.8-1,2.6-4.1,3.2-8.1c0.3-2.2,0.3-4.2-0.4-7.4C18.3,3,16.5,0.4,16.2,0
		c-0.4,0.6-1.9,2.9-2.6,5.4c-0.8,2.8-0.9,5.4-0.6,7.8C13.2,15.7,14.3,18.3,14.3,18.3z M16.2,20.9c-0.4-0.7-0.9-2-1-3.9
		c0-1.9,0.8-3.6,1-3.9c0.2,0.3,0.9,1.8,0.9,3.7C17.2,18.8,16.6,20.3,16.2,20.9z M13.6,10.4c0.1-1.6,0.5-3.4,0.7-4.1
		C15.1,3.6,16,2,16.2,1.7C16.4,2,17.5,4,18.1,6.2c0.6,2.2,0.7,4.2,0.7,5.4c0,1.2-0.2,2.5-0.4,3.3c0.1-1.3-0.1-3.2-0.4-4.7
		c-0.3-1.5-1.2-3.9-1.9-5c-0.6,1.1-1.4,3.2-1.8,5c-0.4,1.8-0.4,4-0.4,4.7C13.8,14.4,13.6,12.4,13.6,10.4z"/>
	<path d="M11.9,22.5v3.7c0,0,0,0,0,0c1.3-1.3,3.4-1.3,4.7,0c1.3,1.3,1.3,3.4,0,4.7c0,0,0,0,0,0c0,0,0,0,0,0c-1.3,1.3-3,1.9-4.7,1.9
		c-1.7,0-3.4-0.6-4.7-2c-2.3-2.3-2.6-5.9-0.8-8.5c0.2-0.4,0.5-0.7,0.8-1c1.3-1.3,3-2,4.7-2v-8.9C5.3,10.6,0,15.9,0,22.5
		c0,6.6,5.3,11.9,11.9,11.9c3.4,0,6.5-1.5,8.7-3.8v-8.1h-3.1H11.9z"/>
</g>
</svg>
