<?xml version="1.0" encoding="utf-8"?>
<!-- Generator: Adobe Illustrator 26.0.1, SVG Export Plug-In . SVG Version: 6.00 Build 0)  -->
<svg version="1.1" id="Слой_1" xmlns="http://www.w3.org/2000/svg" xmlns:xlink="http://www.w3.org/1999/xlink" x="0px" y="0px"
	 viewBox="0 0 290 34.4" style="enable-background:new 0 0 290 34.4;" xml:space="preserve">
<style type="text/css">
	.st0{fill-rule:evenodd;clip-rule:evenodd;fill:#FFFFFF;}
</style>
<path class="st0" d="M48.6,3.6l-0.3,0.3l3.8,5l0.3-0.3c2.2-1.8,5.9-3,11.4-3c7.6,0,11.8,2.3,13.2,5.3H63.5v5.6h13.1
	c-1.8,2.5-5.9,4.4-12.7,4.4c-5.5,0-9.2-1.2-11.4-3l-0.3-0.3l-3.9,5l0.3,0.3c3.4,2.3,8.5,3.6,15.2,3.6c6.7,0,12.1-1.4,15.5-3.9
	s5.1-5.7,5.1-9.4s-1.7-7-5.1-9.4C76,1.4,70.8,0,63.9,0C56.9,0,52.1,1.4,48.6,3.6L48.6,3.6z M0,25.4L0.1,25c2.2-8.1,5-14.1,8.6-18
	c3.7-3.9,8.2-5.9,13.7-5.9S32.4,3,36.1,7c3.7,3.9,6.5,9.9,8.6,17.9l0.1,0.4h-7l-0.1-0.2c-2.3-7.8-4.9-12.2-7.5-14.6
	s-5.4-2.9-7.8-2.9s-5.2,0.5-7.8,2.9C11.9,13,9.2,17.4,7,25.2L7,25.4H0L0,25.4z M204.8,25.4l0.1-0.4c2.1-8,4.9-14,8.6-17.9
	c3.7-3.9,8.2-5.9,13.7-5.9c5.4,0,10,1.9,13.7,5.9c3.7,3.9,6.5,9.9,8.6,17.9l0.1,0.4h-7l-0.1-0.3c-2.2-7.8-4.9-12.2-7.5-14.6
	c-2.7-2.4-5.4-2.9-7.8-2.9c-2.4,0-5.2,0.5-7.8,2.9c-2.7,2.4-5.4,6.8-7.5,14.6l-0.1,0.3H204.8z M86.3,6.7V1.1h36.2v5.6h-14.7v18.7h-7
	V6.7H86.3z M193.7,10.9c0-1-0.3-1.8-0.5-2.3c-0.3-0.6-0.8-1-1.3-1.3s-1.2-0.4-1.8-0.5c-0.7-0.1-1.4-0.1-2.3-0.1h-20.5V1.1h20.8l0,0
	c1.4,0,2.9,0,4.2,0.2c1.5,0.2,2.9,0.5,4.1,1.1c1.3,0.7,2.3,1.6,2.9,3s1.1,3.4,1.1,5.8v14.2h-23.6c-3,0-6.2,0-8.6-0.9
	c-1.2-0.4-2.3-1.2-3-2.2c-0.8-1-1.1-2.4-1.1-4.2c0-1.8,0.4-3.2,1.1-4.2c0.8-1,1.8-1.8,3-2.2c2.3-0.9,5.5-0.9,8.6-0.9h16.8V10.9z
	 M177.1,19.8h16.6v-3.3h-16.6c-1.6,0-3.1,0-4.2,0.3c-0.6,0.1-1,0.3-1.3,0.5c-0.3,0.3-0.4,0.5-0.4,0.9c0,0.4,0.2,0.7,0.4,0.9
	c0.3,0.3,0.7,0.4,1.3,0.5C174,19.8,175.5,19.8,177.1,19.8L177.1,19.8z M277,10.9L277,10.9h-16.3V1.1h-7v24.3h23.6c3,0,6.2,0,8.6-0.9
	c1.2-0.4,2.3-1.2,2.9-2.2c0.8-1,1.1-2.4,1.1-4.2c0-1.8-0.4-3.2-1.1-4.2c-0.8-1-1.8-1.8-2.9-2.2c-2.3-0.9-5.5-0.9-8.6-0.9L277,10.9
	L277,10.9z M277.3,19.8h-16.6v-3.3h16.6c1.6,0,3.1,0,4.2,0.3c0.6,0.1,1,0.3,1.3,0.5c0.3,0.3,0.4,0.5,0.4,0.9c0,0.4-0.2,0.7-0.4,0.9
	c-0.3,0.3-0.7,0.4-1.3,0.5C280.4,19.8,278.9,19.8,277.3,19.8L277.3,19.8z M126.5,1.1l14.3,21.4l-8,11.9h8.3l22.3-33.3h-8.3
	l-10.4,15.5L134.3,1.1C134.3,1.1,126.5,1.1,126.5,1.1z"/>
</svg>
