<?xml version="1.0" encoding="utf-8"?>
<!-- Generator: Adobe Illustrator 26.0.1, SVG Export Plug-In . SVG Version: 6.00 Build 0)  -->
<svg version="1.1" id="Слой_1" xmlns="http://www.w3.org/2000/svg" xmlns:xlink="http://www.w3.org/1999/xlink" x="0px" y="0px"
	 viewBox="0 0 290 34.4" style="enable-background:new 0 0 290 34.4;" xml:space="preserve">
<path d="M0,0.4v34h34v-34C34,0.4,0,0.4,0,0.4z M10.4,5.8c0-2.6,3.9-2.6,3.9,0v13.6c0,1.8,2.7,2,2.7,0V5.8c0-1.3,1-2,1.9-2
	c1,0,1.9,0.6,1.9,2v13.8c0,3.1-2.3,5.2-5.2,5.2c-2.8,0-5.2-2.1-5.2-5.2C10.4,19.5,10.4,5.8,10.4,5.8z M7.8,30c-2.2,0-3.9-1.8-3.9-4
	L3.8,5.8c0.1-2.7,3.8-2.7,4-0.1v19C7.8,25.3,8.3,26,9,26h18l-4.7-11c-0.2-0.3-0.2-0.7-0.2-1.2s0.2-1.2,0.5-1.9l4.3-7
	c0.3-0.6,0.9-1.1,1.7-1.1c1,0,1.9,0.7,2,1.9c0,0.2-0.1,0.7-0.1,0.9l-4,6.4c-0.4,0.7-0.3,1.2-0.2,1.8l6,15.3L7.8,30L7.8,30z"/>
<path id="path2399" d="M42.6,7.1v14.6c0,3.7-0.4,5.7-3.4,5.7c-0.6,0-0.9,0-1.5-0.2v6.3c1.1,0.4,1.9,0.4,2.8,0.4
	c8.4,0,8.8-6.3,8.8-10V13.4h4.8v20.1h6.7V7.1H42.6"/>
<path id="path2401" d="M63.1,7.1l9.1,19.1l-3.3,7.3h7.3L86.9,7.1h-7.3l-3.9,11.2L71.1,7.1H63.1"/>
<path id="path2403" d="M88.9,33.6h6.7V22.2l6.9,11.4h8.6L101.6,20l9.3-12.8h-8l-7.3,11.2V7.1h-6.7V33.6"/>
<path id="path2405" d="M122.1,34.4c8.9,0,13-6.9,13-14c0-6.9-4.1-13.8-13-13.8c-8.8,0-12.9,6.9-12.9,13.8
	C109.3,27.5,113.4,34.4,122.1,34.4z M122.1,28.1c-3,0-6-2.7-6-7.7s3-7.5,6-7.5c3.2,0,6.1,2.4,6.1,7.5S125.3,28.1,122.1,28.1"/>
<path id="path2407" d="M138.5,7.1v26.4h6.5l9.3-15.9v15.9h6.5V7.1h-6.5L145,23V7.1H138.5z M149.9,5.7c2.8,0,5.6-1,6.9-4.1l-4-1.6
	c-0.6,2-2.2,2.2-3,2.2c-0.6,0-2.4-0.2-2.8-2.2l-3.9,1.6C144.3,4.7,147.3,5.7,149.9,5.7"/>
<path id="path2409" d="M167.9,7.1v14.6c0,3.7-0.4,5.7-3.4,5.7c-0.6,0-0.9,0-1.5-0.2v6.3c1.1,0.4,1.9,0.4,2.8,0.4
	c8.4,0,8.8-6.3,8.8-10V13.4h4.9v20.1h6.7V7.1H167.9"/>
</svg>
