<?xml version="1.0" encoding="utf-8"?>
<!-- Generator: Adobe Illustrator 26.0.1, SVG Export Plug-In . SVG Version: 6.00 Build 0)  -->
<svg version="1.1" id="Слой_1" xmlns="http://www.w3.org/2000/svg" xmlns:xlink="http://www.w3.org/1999/xlink" x="0px" y="0px"
	 viewBox="0 0 290 34.4" style="enable-background:new 0 0 290 34.4;" xml:space="preserve">
<g id="g4" transform="scale(2.4752249,2.4752249)">
	<path id="path6" d="M39.4,11.6V2.3h5.7v2.1h-3.4v7.1H39.4z"/>
	<path id="path8" d="M52.4,11.6V8h-3.6v3.6h-2.4V2.3h2.4v3.4h3.6V2.3h2.4v9.2H52.4z"/>
	<path id="path10" d="M68.7,11.6V4.5h-2.8V2.3h8v2.1h-2.8v7.1H68.7L68.7,11.6z"/>
	<path id="path12" d="M62.4,11.6V6.3l-3.9,5.3h-2V2.3H59v5.2l3.7-5.2h2v9.2C64.7,11.6,62.4,11.6,62.4,11.6z"/>
	<path id="path14" d="M25.7,11.6V6.1L23.3,9l-2.4-2.9v5.5h-2.4V2.3h2.3l2.4,3.1l2.4-3.1h2.3v9.2H25.7z"/>
	<path id="path16" d="M32.6,8.3h2.2l-1.1-2.9C33.7,5.4,32.6,8.3,32.6,8.3z M36.1,11.6l-0.5-1.3h-3.7l-0.5,1.3H29l3.7-9.2h2.2
		l3.7,9.2C38.5,11.6,36.1,11.6,36.1,11.6z"/>
	<path id="path18" d="M0,4.2c0-1.1,0.4-2.2,1.2-3C2,0.4,3.1,0,4.2,0h9.6v2.1H4.2c-0.5,0-1,0.2-1.5,0.6c-0.4,0.4-0.6,1-0.6,1.5v3.6
		C2,8.3,1.9,8.7,1.6,9.1S0.9,9.7,0.4,9.7H0V4.2z"/>
	<path id="path20" d="M0,13.9v-2.1h9.6c0.5,0,1-0.2,1.5-0.6c0.4-0.4,0.6-0.9,0.6-1.5V6.3c0-0.5,0.1-1,0.5-1.3
		c0.4-0.4,0.7-0.7,1.2-0.7l0.4-0.1v5.5c0,1.1-0.4,2.2-1.2,3s-1.8,1.2-2.9,1.2C9.6,13.9,0,13.9,0,13.9z"/>
	<path id="path22" d="M8.1,9.7V6.9L6.9,8.5L5.6,6.9v2.8H3.9V4.3h1.5l1.3,1.8l1.3-1.8h1.5v5.4H8.1z"/>
</g>
</svg>
