<?xml version="1.0" encoding="utf-8"?>
<!-- Generator: Adobe Illustrator 26.0.1, SVG Export Plug-In . SVG Version: 6.00 Build 0)  -->
<svg version="1.1" id="svg2" xmlns:svg="http://www.w3.org/2000/svg"
	 xmlns="http://www.w3.org/2000/svg" xmlns:xlink="http://www.w3.org/1999/xlink" x="0px" y="0px" viewBox="0 0 721 179"
	 style="enable-background:new 0 0 721 179;" xml:space="preserve">
<style type="text/css">
	.st0{fill-rule:evenodd;clip-rule:evenodd;fill:#FFFFFF;stroke:#FFFFFF;stroke-width:6.7601;stroke-miterlimit:2.6131;}
	.st1{fill:#FFFFFF;}
</style>
<polygon id="polygon8" class="st0" points="582.1,128.6 586.4,43 548.3,23.7 549.3,4.5 717.3,4.5 716.4,22.7 671.8,43 667.4,129.7 
	708.8,151.1 707.6,174.7 534.4,174.7 535.5,153.3 "/>
<path id="path10" class="st0" d="M400.2,130.9h-25.4l1.5-31.6l25.5,0c13.5-0.5,19.5,11.5,16.1,19.3
	C417.8,118.6,416.5,130.4,400.2,130.9L400.2,130.9z M403.3,69.6h-25.4l1.5-29.7h26.7c10.1-0.3,17.4,7.2,15.2,16.7
	C421.3,56.6,420.7,69.6,403.3,69.6L403.3,69.6z M476.1,4.2c0,0,32.4-3.5,38.7,37.6c0,0,2.6,28.3-26.2,45
	c31.4,9.1,25.7,47.1,25.7,47.1c-9.5,43.2-53.7,40.7-53.7,40.7H246.7l1.3-21.4l39.9-24.6l3.8-86.8l-37.4-18.2l1.3-19.3L476.1,4.2
	L476.1,4.2z"/>
<path id="path12" class="st0" d="M123.3,27.6h5c11.5,0,20.3,9.6,19.7,21.4l-3.9,77.5c-0.6,11.8-10.4,21.4-21.8,21.4h-5
	c-11.5,0-20.3-9.6-19.7-21.4l3.9-77.5C102.1,37.2,111.9,27.6,123.3,27.6L123.3,27.6z M81.2,4.3h92c40.1,0,70.9,33.6,68.8,74.9
	l-1,20.3c-2.1,41.4-36.3,74.9-76.4,74.9h-92c-40.1,0-70.9-33.5-68.8-74.9l1-20.3C6.9,37.8,41.1,4.3,81.2,4.3L81.2,4.3z"/>
<path id="path14" class="st1" d="M679.4,112c0-4.3,1.7-8.2,4.4-11.1c2.7-2.8,6.5-4.6,10.7-4.6c4.2,0,8,1.8,10.7,4.6
	c2.7,2.8,4.4,6.7,4.4,11.1c0,4.3-1.7,8.2-4.4,11.1h0c-2.7,2.8-6.5,4.6-10.7,4.6c-4.2,0-8-1.8-10.7-4.6c0,0,0,0,0,0
	C681.1,120.3,679.4,116.3,679.4,112L679.4,112z M694.6,113.9h-3.4v5.9h-2.8v-15.7l7.8,0c2.2,0.1,3.9,1.3,4.7,2.8
	c0.3,0.7,0.5,1.4,0.5,2.1v0c0,0.7-0.2,1.5-0.5,2.1c-0.5,1-1.5,1.8-2.9,2.3l4,6.6h-3.7L694.6,113.9L694.6,113.9z M691.2,111
	c1.7,0,3.1-0.1,5-0.1h0.2l0,0c1.1-0.2,1.7-0.6,2-1.2c0.1-0.2,0.2-0.5,0.2-0.7c0-0.3-0.1-0.5-0.2-0.8c-0.4-0.7-1.1-1.2-2.3-1.2h-4.9
	V111L691.2,111z M686,103.1c-2.2,2.3-3.6,5.4-3.6,8.9c0,3.5,1.4,6.6,3.6,8.9l0,0c2.2,2.3,5.3,3.7,8.6,3.7c3.4,0,6.4-1.4,8.6-3.7v0
	c2.2-2.3,3.6-5.4,3.6-8.9c0-3.5-1.4-6.6-3.6-8.9c-2.2-2.3-5.3-3.7-8.6-3.7C691.2,99.4,688.2,100.9,686,103.1L686,103.1z"/>
</svg>
