<?xml version="1.0" encoding="utf-8"?>
<!-- Generator: Adobe Illustrator 26.0.1, SVG Export Plug-In . SVG Version: 6.00 Build 0)  -->
<svg version="1.1" id="Слой_1" xmlns="http://www.w3.org/2000/svg" xmlns:xlink="http://www.w3.org/1999/xlink" x="0px" y="0px"
	 viewBox="0 0 290 34.4" style="enable-background:new 0 0 290 34.4;" xml:space="preserve">
<g>
	<path d="M18.5,9.3l-3.8,3.8l-3.8-3.8c-2.1-2.1-2.1-5.6,0-7.8c2.1-2.1,5.6-2.1,7.7,0C20.6,3.8,20.6,7.2,18.5,9.3z"/>
	<path d="M10.8,20.2l3.8-3.8l3.8,3.8c2.1,2.1,2.1,5.6,0,7.8c-2.1,2.1-5.6,2.1-7.7,0C8.7,25.8,8.7,22.3,10.8,20.2z"/>
	<path d="M20.1,18.7l-3.8-3.9l3.8-3.8c2.1-2.1,5.6-2.1,7.7,0s2.1,5.6,0,7.8C25.7,20.8,22.2,20.8,20.1,18.7z"/>
	<path d="M9.3,10.9l3.8,3.8l-3.8,3.8c-2.1,2.1-5.6,2.1-7.7,0s-2.1-5.6,0-7.8C3.6,8.8,7.2,8.8,9.3,10.9z"/>
	<path d="M224.6,13.6H219v13.6h-4.6V13.6h-5.6V9.1h15.9V13.6z M66.3,20.1h13.5c0.1-0.6,0.2-1.3,0.2-1.9c0-5.3-3.8-9.5-9.1-9.5
		c-5.6,0-9.5,4.2-9.5,9.5s3.8,9.5,9.8,9.5c3.4,0,6.2-1.4,7.8-3.8l-3.7-2.2c-0.8,1.1-2.3,1.8-4,1.8C69,23.5,67,22.5,66.3,20.1z
		 M66.3,16.4c0.5-2.3,2.3-3.6,4.7-3.6c1.9,0,3.9,1.1,4.4,3.6H66.3z M93.7,8.6c-2.6,0-4.5,1-5.8,2.7V9.1h-4.6v25.3h4.6v-9.3
		c1.3,1.7,3.2,2.7,5.8,2.7c4.8,0,8.7-4.2,8.7-9.5C102.5,12.8,98.6,8.6,93.7,8.6z M92.9,23.2c-2.9,0-5-2.1-5-5.1s2.1-5.1,5-5.1
		s5,2.1,5,5.1S95.8,23.2,92.9,23.2z M109.7,20.1h13.5c0.1-0.6,0.2-1.3,0.2-1.9c0-5.3-3.8-9.5-9.1-9.5c-5.6,0-9.5,4.2-9.5,9.5
		s3.8,9.5,9.8,9.5c3.4,0,6.2-1.4,7.8-3.8l-3.7-2.2c-0.8,1.1-2.3,1.8-4,1.8C112.3,23.5,110.4,22.5,109.7,20.1z M109.6,16.4
		c0.5-2.3,2.3-3.6,4.7-3.6c1.9,0,3.9,1.1,4.4,3.6H109.6z M157.3,8.6c-2.7,0-4.5,1-5.8,2.7V9.1h-4.6v25.3h4.6v-9.3
		c1.3,1.7,3.2,2.7,5.8,2.7c4.8,0,8.7-4.2,8.7-9.5S162.1,8.6,157.3,8.6z M156.4,23.2c-2.9,0-5-2.1-5-5.1s2.1-5.1,5-5.1
		c2.9,0,5,2.1,5,5.1S159.3,23.2,156.4,23.2z M173.3,20.1h13.5c0.1-0.6,0.2-1.3,0.2-1.9c0-5.3-3.8-9.5-9.1-9.5
		c-5.6,0-9.5,4.2-9.5,9.5s3.8,9.5,9.8,9.5c3.4,0,6.2-1.4,7.8-3.8l-3.7-2.2c-0.8,1.1-2.3,1.8-4,1.8C175.8,23.5,173.9,22.5,173.3,20.1
		z M174.3,7.2c1.3,0,2.4-1.1,2.4-2.4s-1.1-2.5-2.4-2.5s-2.5,1.1-2.5,2.5C171.8,6.2,172.9,7.2,174.3,7.2z M173.1,16.4
		c0.5-2.3,2.3-3.6,4.7-3.6c1.9,0,3.9,1.1,4.4,3.6H173.1z M181,7.2c1.3,0,2.4-1.1,2.4-2.4s-1.1-2.5-2.4-2.5s-2.5,1.1-2.5,2.5
		C178.6,6.2,179.7,7.2,181,7.2z M198.6,27.6c3.5,0,6.6-1.9,8.1-4.7l-4-2.3c-0.7,1.5-2.3,2.4-4.1,2.4c-2.8,0-4.8-2.1-4.8-4.9
		s2.1-4.9,4.8-4.9c1.9,0,3.4,0.9,4.1,2.4l4-2.3c-1.5-2.8-4.5-4.6-8-4.6c-5.4,0-9.5,4.2-9.5,9.5C189.1,23.5,193.1,27.6,198.6,27.6z
		 M235.6,27.6c5.3,0,9.5-4.2,9.5-9.5s-4.2-9.5-9.5-9.5s-9.5,4.2-9.5,9.5S230.3,27.6,235.6,27.6z M235.6,23.1c-2.7,0-4.8-2.1-4.8-5
		s2.1-5,4.8-5c2.8,0,4.9,2.1,4.9,5C240.5,21.1,238.4,23.1,235.6,23.1z M138.4,27.2h5.4l-6.9-9.1l6.6-8.9H138l-5.1,7.3h-1.6V9.1h-4.6
		v18h4.6v-7.1h1.9L138.4,27.2z M259.6,27.2h5.4l-6.8-9.1l6.6-8.9h-5.5l-5.2,7.4h-1.6V9.1h-4.6v18h4.6v-7.1h1.9L259.6,27.2z
		 M58.5,2.3H39.7v24.8h5V7h8.9v20.1h5L58.5,2.3L58.5,2.3z"/>
</g>
</svg>
