<?xml version="1.0" encoding="utf-8"?>
<!-- Generator: Adobe Illustrator 26.0.1, SVG Export Plug-In . SVG Version: 6.00 Build 0)  -->
<svg version="1.1" id="Слой_1" xmlns="http://www.w3.org/2000/svg" xmlns:xlink="http://www.w3.org/1999/xlink" x="0px" y="0px"
	 viewBox="0 0 290 34.4" style="enable-background:new 0 0 290 34.4;" xml:space="preserve">
<g>
	<rect x="6.9" y="18.9" width="2.9" height="15.5"/>
	<rect x="13.8" y="18.9" width="2.9" height="15.5"/>
	<rect x="10.3" y="15.5" width="2.9" height="18.9"/>
	<polygon points="0,17.2 2.9,20.1 2.9,10.3 0,10.3 	"/>
	<rect x="6.9" y="3.4" width="2.9" height="14.9"/>
	<rect x="13.8" y="3.4" width="2.9" height="14.9"/>
	<rect x="10.3" width="2.9" height="14.9"/>
	<polygon points="3.4,20.6 6.3,23.5 6.3,6.9 3.4,6.9 	"/>
	<polygon points="17.2,23.5 20.1,20.6 20.1,6.9 17.2,6.9 	"/>
	<polygon points="20.6,10.3 20.6,20.1 23.5,17.2 23.5,10.3 	"/>
</g>
<path d="M46.9,16.1c3.1,0,5.6,2.5,5.6,5.5v1.2c0,2.6-1.8,4.8-4.3,5.4l5.1,6.3H46l-5-6.1h-3v6.1h-7.3V16.1
	C30.7,16.1,39.4,16.1,46.9,16.1 M38.1,24h6.2c0.9,0,1.7-0.7,1.7-1.7V22c0-0.9-0.8-1.7-1.7-1.7h-6.2 M83.4,34.4h10.4
	c3.2,0,5.8-2.6,5.8-5.8c0-3.2-2.6-5.8-5.8-5.8h-7.3c-0.5,0-1-0.4-1-1v-0.5c0-0.5,0.4-1,1-1h4.7c0.5,0,1,0.4,1,1v0.2h7.3
	c-0.2-3.1-2.7-5.5-5.8-5.5H83.4c-3.2,0-5.8,2.6-5.8,5.8c0,3.2,2.6,5.8,5.8,5.8h7.3c0.5,0,1,0.4,1,1v0.5c0,0.5-0.4,1-1,1h-4.8
	c-0.5,0-1-0.4-1-1v-0.2h-7.3C77.7,31.9,80.3,34.4,83.4,34.4 M116.7,34.4h7.3V16.1h-7.3v10.6l-8.6-10.6h-7.3v18.3h7.3V23.8
	 M146.6,34.4h7.3v-6.7h11v-4.9l-11,0v-1.8h12.4v-4.9h-19.7 M53.4,25.2c0,6,3.9,9.2,11.7,9.2c7.8,0,11.7-3.2,11.7-9.2
	c0-6-3.9-9.1-11.7-9.1C57.3,16.1,53.4,19.2,53.4,25.2 M65.1,20.3c2.4,0,4.3,1.7,4.3,3.7v2.4c0,2-1.9,3.7-4.3,3.7
	c-2.4,0-4.3-1.7-4.3-3.7V24C60.7,22,62.7,20.3,65.1,20.3 M125.5,34.4h20.3v-4.9h-13v-1.8h11v-4.9l-11,0v-1.8h12.4v-4.9h-19.7
	 M173.7,34.4h7.3V20.9h6.4v-4.9h-20.4v4.9h6.6"/>
</svg>
