<?xml version="1.0" encoding="utf-8"?>
<!-- Generator: Adobe Illustrator 26.0.1, SVG Export Plug-In . SVG Version: 6.00 Build 0)  -->
<svg version="1.1" id="Слой_1" xmlns="http://www.w3.org/2000/svg" xmlns:xlink="http://www.w3.org/1999/xlink" x="0px" y="0px"
	 viewBox="0 0 290 34.4" style="enable-background:new 0 0 290 34.4;" xml:space="preserve">
<path d="M109.6,19.7c-4.5,0-5.8,0.1-7.3,0.6c-1.6,0.5-2.6,1.5-3,2.9c-0.7,2.3-0.6,7.1,0.2,8.8c0.6,1.2,1.9,2,3.8,2.3
	c1.5,0.2,13.7,0.2,14.7,0c2.1-0.5,3.4-1.8,3.7-3.8c0.1-1,0.2-1-3.9-0.9l-3.6,0l-0.1,0.5c-0.2,0.6-0.6,1.1-1.2,1.5
	c-0.4,0.2-0.7,0.2-2.6,0.2c-2.3,0-2.5-0.1-3.1-0.9c-0.3-0.4-0.4-2.1-0.1-2.4c0.2-0.2,0.9-0.2,7.4-0.1l7.3-0.1
	c0.2-0.3,0.1-4.4-0.2-5.1c-0.5-1.3-1.5-2.2-3-2.7C117.3,19.9,114.3,19.7,109.6,19.7L109.6,19.7z M110.7,22.7c0.8,0,1.7,0.1,2,0.2
	c1.1,0.6,1.8,1.7,1.3,2.2c-0.2,0.2-0.6,0.2-3.3,0.2c-2.2,0-3.1,0-3.2-0.1c-0.1-0.1-0.1-0.4-0.1-0.7c0-0.7,0.5-1.3,1.3-1.6
	C109,22.7,109.8,22.7,110.7,22.7L110.7,22.7z M50.2,34.1c-2.1-0.1-2.8-0.2-3.8-0.6c-1-0.4-1.9-1.3-2.3-2.3c-0.3-0.8-0.5-2.1-0.5-2.9
	l0-0.5h8.9l0.1,0.7c0.1,1.2,0.6,1.8,1.5,2.1c0.3,0.1,1.4,0.1,3.1,0.1c2.6,0,2.7,0,3.1-0.4c0.7-0.5,1-1.1,1-2.2c0-1-0.1-1.4-0.6-1.9
	c-0.6-0.6-1.1-0.7-6.7-0.8L48,25.2c-1.3-0.2-2.6-0.9-3.1-1.6c-0.7-0.9-0.8-1.6-0.7-4c0.1-2.3,0.1-2.7,0.7-3.6c0.7-1,2-1.7,4-2
	c0.5-0.1,4.3-0.1,8.6-0.2l8.6,0.2c1.6,0.4,2.6,0.9,3.1,1.7c0.5,0.7,0.7,3.6,0.4,4c-0.2,0.2-0.7,0.2-4.2,0.2c-3.1,0-4,0-4.1-0.2
	c-0.1-0.1-0.1-0.5-0.2-0.9c-0.1-1.3-0.6-1.8-2.2-2.1c-1.1-0.2-4.3,0-5.2,0.2c-1.3,0.4-1.5,0.7-1.4,2.3c0,1.1,0.2,1.5,0.9,2
	c0.5,0.3,0.8,0.3,7.1,0.5l5.3,0.3c2.1,0.5,3.6,1.5,4.1,2.9c0.2,0.8,0.4,3.1,0.3,4.2c-0.2,2.9-1.6,4.4-4.1,4.6
	C62.8,34.2,54.3,34.3,50.2,34.1L50.2,34.1z M73.8,34.1c0-0.1,0-4.6,0-10l0-9.8l3.6,0l3.8,0.1c0.1,0.1,0.2,0.8,0.2,3.2v3l0.3,0.1
	c0.2,0,0.7-0.1,1.2-0.2c1.8-0.6,6.8-0.7,9.1-0.1c1.8,0.5,3.1,1.4,3.4,2.5c0.2,0.7,0.2,11.1,0,11.3c-0.1,0.1-1,0.1-3.6,0.1
	s-3.5,0-3.6-0.1c-0.1-0.1-0.1-1.3-0.1-4.7v-4.5l-0.4-0.4c-1.2-1.2-4.8-1.1-6.1,0.1L81.4,25v4.5l-0.1,4.7
	C81.1,34.3,73.9,34.3,73.8,34.1L73.8,34.1z M125.5,34c-0.2-0.3-0.2-19.4,0-19.6c0.1-0.2,0.5-0.2,3.8-0.2l3.7,0v19.9l-3.7,0
	C125.8,34.3,125.7,34.3,125.5,34L125.5,34z M137.4,34.1c0-0.1,0-4.6,0-10l0-9.8l3.6,0l3.8,0.1c0.2,0.2,0.2,19.6,0,19.8
	C144.6,34.3,137.4,34.3,137.4,34.1L137.4,34.1z"/>
<path d="M32.7,6.7c-0.5-0.6-1.5-1.7-2.3-2.3c-2.8-2.3-6.1-3.8-9.6-4.2c-2.5-0.3-5-0.1-7.4,0.6c-2.8,0.8-5.1,2.1-7.3,4
	C5.4,5.4,4.7,6.1,3.9,7.2c-3.2,4.3-4.4,9-3.8,14.3c0.1,0.7,0.1,0.7,0.2,0.8l3,2.2c2.4,1.7,2.9,2.1,2.9,2.2l0.1,0.9l0.2,1.4l0.1,1.2
	l0.1,1l0.2,1.3c0.1,0.5,0.1,1,0.1,1c0,0,1,0.1,4.8,0.1h4.7l0.3,0.2c0.5,0.4,0.9,0.6,1.4,0.7l0,0c0.7,0.1,1.5-0.1,2.2-0.7l0.3-0.2
	l4.7,0c2.6,0,4.7,0,4.7,0l0.4-3.4l0.3-3.1l0.1-0.5l4.4-3.3c1.3-1,1.5-1.1,1.5-1.3c0-0.1,0-0.3,0.1-0.6C37.3,15.9,36,11,32.7,6.7z
	 M33.8,19c0,0.8-0.2,1.6-0.3,1.7l-5.7,4.2l-0.1,0.5L27.4,29l-0.1,0.9c0,0.2,0,0.3,0,0.4l-3.5,0.1l-3.5,0l-0.4,0.3
	c-0.2,0.2-0.5,0.4-0.6,0.5l0,0c-0.2,0.1-0.4,0.1-0.6,0.2c-0.5,0-1-0.2-1.5-0.7l-0.3-0.3H9.8l0-0.1l-0.1-1.1l-0.2-1.5l-0.1-1.1
	l-0.1-1l-0.1-0.4l-1.3-1c-3.7-2.8-4.5-3.4-4.5-3.5c-0.1-0.1-0.1-0.2-0.2-0.5c-0.1-0.6-0.1-2,0-2.6c0.1-0.7,0.4-1.8,0.5-1.9l4.8,4.8
	c4.4,4.5,4.7,4.8,4.8,4.8c0.1,0,0.1-0.1,0.1-0.1l-1.5-1.9l-4.6-5.7l-3.1-3.8l0-0.3c0.1-0.6,0.4-1.5,0.9-2.2c0.4-0.6,1.3-1.6,1.3-1.6
	L13.6,22c0.6,1,1.1,1.9,1.2,1.9c0.1,0.2,0.3,0.1,0.3,0c0-0.1-0.1-0.4-0.3-0.8l-7.2-15l0.2-0.3c0.5-0.7,1.1-1.3,1.8-1.7
	c0.6-0.4,1.8-0.9,1.9-0.8l1.2,4l1.3,4.4l0.4,1.5c1.6,5.6,2.3,8,2.4,8.1c0.1,0.1,0.2,0.1,0.2-0.1l-1.1-5.8l-2.6-13l0.2-0.1
	c0.3-0.2,0.9-0.5,1.3-0.6c0.9-0.3,1.8-0.4,2.7-0.3l0.3,0l0,0.3L17.7,8l0.1,1.4l0.1,1.6l0.2,3.4l0.1,2.1l0.2,5.6
	c0.1,1.3,0.1,1.4,0.1,1.4c0.2,0,0.2-0.1,0.2-1.7l0.1-2.8l0.5-14c0-0.8,0.1-1.5,0.1-1.5c0,0,1.1-0.1,1.6,0c1.2,0.1,2,0.4,2.7,0.9
	l0.1,0.1l-3,15.9l-0.2,0.9l-0.3,1.5c-0.1,0.5-0.1,0.6,0,0.6c0.1,0,0.1-0.1,0.3-0.7l4.2-14.7c0.6-2.2,0.7-2.5,0.7-2.5
	c0,0,1,0.5,1.5,0.7c0.6,0.3,1.2,0.8,1.6,1.2C29,7.5,29.3,7.9,29.3,8l-1.5,3.2l-5.1,10.9c-0.7,1.6-0.8,1.8-0.6,1.8c0.1,0,0.1,0,0.1,0
	l0.8-1.4l6.7-11.8c0.4-0.6,0.7-1.2,0.7-1.2c0,0,0.8,0.8,1.2,1.3c0.3,0.5,0.7,1,0.9,1.4c0.1,0.4,0.3,1,0.3,1.1l-4.6,5.8l-3.5,4.4
	c-0.9,1.2-1,1.3-1,1.4l1-0.9l4.7-4.7c2-2,3.7-3.7,3.7-3.7c0.1,0,0.3,0.7,0.5,1.2C33.8,17.5,33.8,18.1,33.8,19z"/>
</svg>
